<?xml version="1.0" encoding="utf-8"?>
<svg id="master-artboard" viewBox="0 0 1200 600" xmlns="http://www.w3.org/2000/svg" width="1200px" height="600px"><rect id="ee-background" x="0" y="0" width="1200" height="600" style="fill: white; fill-opacity: 0; pointer-events: none;"/><defs><radialGradient id="gradient-0" gradientUnits="objectBoundingBox" cx="0.5" cy="0.5" r="0.5">
                <stop offset="0" style="stop-color: #3345ab"/>
                <stop offset="1" style="stop-color: #1c255c"/>
              </radialGradient></defs><title>x-retro-alpha</title><path d="M 0 0 L 2800 0 L 2800 1800 L 0 1800 L 0 0 Z" class="cls-1" style="fill: rgb(255, 243, 237); fill-opacity: 0;" transform="matrix(0.529807448387146, 0, 0, 0.555555522441864, -172.20074601246296, -119.34922027587888)"/><path class="cls-2" d="M907.34,1245.57a3.72,3.72,0,0,0,2.88.94l90-7.87a4.5,4.5,0,0,0,2.88-1.45,4.45,4.45,0,0,0,1.19-3v-27.77a3.75,3.75,0,0,0-1.19-2.78l-29.93-27.31v-23.71a3.71,3.71,0,0,0-1.19-2.77L950.19,1130l50-4.38a4.5,4.5,0,0,0,2.88-1.45,4.45,4.45,0,0,0,1.19-3V1093.4a3.71,3.71,0,0,0-1.19-2.77l-34.38-31.38a3.8,3.8,0,0,0-2.88-.94l-90,7.88a4.54,4.54,0,0,0-4.08,4.43v140.8a3.72,3.72,0,0,0,1.2,2.78Z" style="fill: rgb(73, 95, 158); stroke: rgb(7, 8, 3); stroke-width: 2;" transform="matrix(1, 0, 0, 1, -180.85525512695312, -892.972900390625)"/><path class="cls-2" d="M2124.91,999.76l-34.38-31.37a3.78,3.78,0,0,0-2.88-.95l-31.7,2.78a4.55,4.55,0,0,0-3.57,2.42l-11.65,22.17-22.06-20.14a3.81,3.81,0,0,0-2.88-.94L1988,976.16a4.53,4.53,0,0,0-4.07,4.43V1121.4a3.73,3.73,0,0,0,1.19,2.77l34.38,31.37a3.72,3.72,0,0,0,2.88.94l27.77-2.43a4.52,4.52,0,0,0,4.07-4.42v-9.27l7.48-14.24,25.73,23.48a3.72,3.72,0,0,0,2.88.94l31.7-2.77a4.54,4.54,0,0,0,3.5-2.31,4.05,4.05,0,0,0,.06-4l-37.68-65.14,37.68-71.74A3.93,3.93,0,0,0,2124.91,999.76Z" style="fill: rgb(73, 95, 158); stroke: rgb(7, 8, 3); stroke-width: 2;" transform="matrix(1, 0, 0, 1, -1913.109619140625, -811.0228271484375)"/><path class="cls-2" d="M398.76,1357.28l-25.84,2.26c-19.94,1.74-36.16,19.38-36.16,39.32v76.63a32.69,32.69,0,0,0,13.45,26.94c10,9.2,27.12,25,31.53,29.06a33.14,33.14,0,0,0,25.56,8.37l25.84-2.26c19.94-1.75,36.16-19.39,36.16-39.32v-76.64A32.89,32.89,0,0,0,458.7,1397l-34.38-31.37h0A33.09,33.09,0,0,0,398.76,1357.28Z" style="fill: rgb(73, 95, 158); fill-opacity: 1; stroke: rgb(7, 8, 3); stroke-width: 2;" transform="matrix(1, 0, 0, 1, -127.1638412475586, -1198.1663208007812)"/><path class="cls-3" d="M372.92,1363.61c-17.69,1.55-32.09,17.2-32.09,34.89v76.64c0,17.69,14.4,30.82,32.09,29.28l25.84-2.26c17.69-1.55,32.09-17.21,32.09-34.9v-76.63c0-17.7-14.4-30.83-32.09-29.28Zm30.16,29.44v76.64a4.82,4.82,0,0,1-4.32,4.7l-25.84,2.26a3.9,3.9,0,0,1-4.32-3.94v-76.64a4.81,4.81,0,0,1,4.32-4.69l25.84-2.26A3.9,3.9,0,0,1,403.08,1393.05Z" style="fill: rgb(255, 255, 255);" transform="matrix(0.9999999999999999, 0, 0, 1, -125.81163614973684, -1195.7392520558444)"/><path class="cls-2" d="M398.76,1372.69,372.92,1375a23.12,23.12,0,0,0-20.75,22.56v76.64a18.73,18.73,0,0,0,20.75,18.93l25.84-2.27a23.12,23.12,0,0,0,20.75-22.56v-76.63A18.73,18.73,0,0,0,398.76,1372.69Zm15.66,96a17.46,17.46,0,0,1-15.66,17L372.92,1488a14.14,14.14,0,0,1-15.66-14.29v-76.64a17.44,17.44,0,0,1,15.66-17l25.84-2.26a14.13,14.13,0,0,1,15.66,14.28Z" style="fill: rgb(73, 95, 158); stroke: rgb(7, 8, 3); stroke-width: 2;" transform="matrix(1.0482876300811768, 0, 0, 1.0482876300811765, -146.3189803063138, -1265.6087588917817)"/><path class="cls-2" d="M1537.19,1258.87a3.7,3.7,0,0,0-2.87-.94l-27.77,2.43a4.53,4.53,0,0,0-4.08,4.42v24.65L1475,1264.31a3.81,3.81,0,0,0-2.88-.94l-27.77,2.43a4.53,4.53,0,0,0-4.07,4.43V1379a32.84,32.84,0,0,0,10.61,24.64l34.37,31.36a33.11,33.11,0,0,0,25.55,8.37l25.85-2.26c19.94-1.75,36.16-19.39,36.16-39.32V1293a3.7,3.7,0,0,0-1.2-2.77Z" style="fill: rgb(73, 95, 158); stroke: rgb(7, 8, 3); stroke-width: 2;" transform="matrix(1, 0, 0, 1, -627.3416748046875, -1090.7833862304688)"/><path class="cls-3" d="M1506.55,1373.15a4.8,4.8,0,0,1-4.32,4.69l-25.84,2.27a3.9,3.9,0,0,1-4.32-3.94V1267.44l-27.77,2.43V1378.6c0,17.69,14.39,30.82,32.09,29.28l25.84-2.27c17.69-1.54,32.09-17.2,32.09-34.89V1262l-27.77,2.43Z" style="fill: rgb(255, 255, 255);" transform="matrix(0.9999999999999999, 0, 0, 1, -625.3134167490192, -1087.95751953125)"/><path class="cls-2" d="M1520.43,1274.55a2.85,2.85,0,0,0-2.54,2.77v94.84a17.45,17.45,0,0,1-15.66,17l-25.84,2.27a14.14,14.14,0,0,1-15.66-14.29v-94.84a2.3,2.3,0,0,0-2.55-2.32,2.83,2.83,0,0,0-2.54,2.77v94.83a18.72,18.72,0,0,0,20.75,18.93l25.84-2.26a23.12,23.12,0,0,0,20.75-22.56v-94.83A2.3,2.3,0,0,0,1520.43,1274.55Z" style="fill: rgb(73, 95, 158); stroke: rgb(7, 8, 3); stroke-width: 2;" transform="matrix(0.9999999999999999, 0, 0, 1, -625.3134466557595, -1089.430985745563)"/><path d="M 965.8499755859375 1175.4200439453125 L 903.6099853515625 1180.8699951171875 L 903.6099853515625 1152.1199951171875 L 934.72998046875 1149.4000244140625 L 934.72998046875 1121.6300048828125 L 903.6099853515625 1124.3499755859375 L 903.6099853515625 1095.5999755859375 L 965.8499755859375 1090.1500244140625 L 965.8499755859375 1062.3800048828125 L 875.8400268554688 1070.260009765625 L 875.8400268554688 1126.780029296875 L 875.8400268554688 1154.550048828125 L 875.8400268554688 1211.0699462890625 L 965.8499755859375 1203.18994140625 L 965.8499755859375 1175.4200439453125 Z" class="cls-3" style="fill: rgb(255, 255, 255);" transform="matrix(0.9999999999999999, 0, 0, 1, -176.67718505859375, -889.9910278320312)"/><path class="cls-2" d="M952,1080a2.83,2.83,0,0,0,2.54-2.77,2.3,2.3,0,0,0-2.54-2.32l-62.25,5.45a2.82,2.82,0,0,0-2.54,2.76v113a2.28,2.28,0,0,0,2.54,2.32l62.25-5.44a2.84,2.84,0,0,0,2.54-2.77A2.29,2.29,0,0,0,952,1188l-59.71,5.22v-51.43l28.58-2.5a2.83,2.83,0,0,0,2.55-2.77,2.3,2.3,0,0,0-2.55-2.32l-28.58,2.5v-51.43Z" style="fill: rgb(73, 95, 158); stroke: rgb(7, 8, 3); stroke-width: 2;" transform="matrix(0.9999999999999999, 0, 0, 1, -176.27841715511, -886.7663789231266)"/><path d="M 2055.949951171875 974.2899780273438 L 2015.7900390625 1050.72998046875 L 2015.7900390625 977.7999877929688 L 1988.02001953125 980.22998046875 L 1988.02001953125 1121.0400390625 L 2015.7900390625 1118.6099853515625 L 2015.7900390625 1108.300048828125 L 2033.030029296875 1075.47998046875 L 2055.949951171875 1115.0999755859375 L 2087.64990234375 1112.3199462890625 L 2048.8798828125 1045.31005859375 L 2087.64990234375 971.52001953125 L 2055.949951171875 974.2899780273438 Z" class="cls-3" style="fill: rgb(255, 255, 255);" transform="matrix(1.028054475784302, 0.02513696253299713, -0.025136962532997135, 1.0280544757843018, -1940.9372558593752, -889.6018784264072)"/><path class="cls-2" d="M1999.4,1106.54a1.85,1.85,0,0,0,0,.23c0,.08,0,.15.07.22a1.6,1.6,0,0,0,.1.23,2,2,0,0,0,.11.2c0,.07.09.13.13.19s.11.12.16.18l.17.16a1.33,1.33,0,0,0,.19.14l.22.13.09.06.18.07.08,0,.42.09h.08a3.57,3.57,0,0,0,.46,0,3.4,3.4,0,0,0,.46-.09l.11,0a3.69,3.69,0,0,0,.42-.17l0,0c.12-.07.24-.14.35-.22l.09-.07.33-.3h0a2.42,2.42,0,0,0,.27-.36l.07-.11a1,1,0,0,0,.08-.14l28.9-55,28.89,50a2.31,2.31,0,0,0,2.23,1.12,2.87,2.87,0,0,0,1.23-.42,2.7,2.7,0,0,0,1-3.55l-30.45-52.63,30.45-58a2.4,2.4,0,0,0-1-3.37,2.72,2.72,0,0,0-3.46,1.3l-31.12,59.25-26.35,50.15V992.68a2.3,2.3,0,0,0-2.55-2.32,2.83,2.83,0,0,0-2.54,2.77v113s0,.07,0,.11A1.24,1.24,0,0,0,1999.4,1106.54Z" style="fill: rgb(73, 95, 158); stroke: rgb(7, 8, 3); stroke-width: 2;" transform="matrix(0.9999999999999999, 0, 0, 1, -1912.5550026446947, -808.0410098683444)"/><path class="cls-2" d="M2203.43,1139.45a3.73,3.73,0,0,0,2.88.94l90-7.87a4.53,4.53,0,0,0,4.07-4.43v-27.77a3.71,3.71,0,0,0-1.19-2.77l-34.38-31.38a3.81,3.81,0,0,0-2.88-.94l-23.8,2.09V992.73A3.75,3.75,0,0,0,2237,990l-34.38-31.37a3.8,3.8,0,0,0-2.88-.94l-27.77,2.43a4.53,4.53,0,0,0-4.07,4.43v140.81a3.73,3.73,0,0,0,1.19,2.77Z" style="fill: rgb(73, 95, 158); stroke: rgb(7, 8, 3); stroke-width: 2;" transform="matrix(1, 0, 0, 1, -1825.5079345703125, -796.8935546875)"/><path d="M 2261.949951171875 1069.31005859375 L 2199.699951171875 1074.75 L 2199.699951171875 961.7100219726562 L 2171.929931640625 964.1400146484375 L 2171.929931640625 1104.949951171875 L 2261.949951171875 1097.0799560546875 L 2261.949951171875 1069.31005859375 Z" class="cls-3" style="fill: rgb(255, 255, 255);" transform="matrix(0.9999999999999999, 0, 0, 1, -1826.3054821787066, -797.014897572095)"/><path class="cls-2" d="M2248.06,1081.86l-59.7,5.22V976.59a2.3,2.3,0,0,0-2.54-2.32,2.83,2.83,0,0,0-2.55,2.77v113a2.3,2.3,0,0,0,2.55,2.33l62.24-5.45a2.83,2.83,0,0,0,2.55-2.77A2.3,2.3,0,0,0,2248.06,1081.86Z" style="fill: rgb(73, 95, 158); stroke: rgb(7, 8, 3); stroke-width: 2;" transform="matrix(0.9760769605636598, 0, 0, 0.9760769605636597, -1770.9905806481108, -769.8070340938449)"/><path class="cls-2" d="M2464.3,935.68a3.8,3.8,0,0,0-2.88-.94l-22.09,1.94a4.54,4.54,0,0,0-3.57,2.42l-27.19,51.75-8.25-14.27a3.84,3.84,0,0,0-.69-.86l-34.38-31.37a3.76,3.76,0,0,0-2.88-.94l-22.09,1.93a4.53,4.53,0,0,0-2.88,1.45,4.45,4.45,0,0,0-1.19,3v140.81a3.71,3.71,0,0,0,1.19,2.77l34.38,31.37a3.73,3.73,0,0,0,2.88.94l27.77-2.43a4.52,4.52,0,0,0,4.07-4.42v-36.33l25.85,23.59a3.83,3.83,0,0,0,3.45.85,4.63,4.63,0,0,0,3-2.33l4.29-8.17,22.06,20.14a3.8,3.8,0,0,0,2.88.94l27.77-2.43a4.53,4.53,0,0,0,4.07-4.43V969.83a3.71,3.71,0,0,0-1.19-2.77Z" style="fill: rgb(73, 95, 158); stroke: rgb(7, 8, 3); stroke-width: 2;" transform="matrix(1, 0, 0, 1, -1393.1507568359375, -779.9383544921875)"/><path d="M 2400.85009765625 1013.989990234375 L 2362.3701171875 947.47998046875 L 2340.280029296875 949.4099731445312 L 2340.280029296875 1090.219970703125 L 2368.050048828125 1087.7900390625 L 2368.050048828125 1014.8699951171875 L 2400.85009765625 1071.56005859375 L 2433.64990234375 1009.1300048828125 L 2433.64990234375 1082.050048828125 L 2461.419921875 1079.6199951171875 L 2461.419921875 938.8200073242188 L 2439.330078125 940.75 L 2400.85009765625 1013.989990234375 Z" class="cls-3" style="fill: rgb(255, 255, 255);" transform="matrix(1, 0, 0, 1, -1390.3248291015625, -771.4607543945312)"/><path class="cls-2" d="M2448.17,951.4a2.76,2.76,0,0,0-2.86,1.48l-44.46,84.62-44.46-76.84a2.35,2.35,0,0,0-2.86-1,2.84,2.84,0,0,0-1.91,2.63v113a2.3,2.3,0,0,0,2.55,2.33,2.85,2.85,0,0,0,2.54-2.77V971.76l41.91,72.44a2.31,2.31,0,0,0,2.23,1.12,2.84,2.84,0,0,0,2.23-1.51L2445,964v103.15a2.3,2.3,0,0,0,2.55,2.32,2.84,2.84,0,0,0,2.54-2.77v-113A2.28,2.28,0,0,0,2448.17,951.4Z" style="fill: rgb(73, 95, 158); stroke: rgb(7, 8, 3); stroke-width: 2;" transform="matrix(1, 0, 0, 1, -1393.1507568359375, -768.6348876953125)"/><path class="cls-2" d="M2274.69,1195.39a3.72,3.72,0,0,0-2.88-.94l-31.7,2.77a4.56,4.56,0,0,0-3.57,2.42l-13.66,26-25.73-23.48a3.8,3.8,0,0,0-2.88-.94l-31.7,2.78a4.51,4.51,0,0,0-3.5,2.3,4.08,4.08,0,0,0-.07,4l40.23,69.54v65.79a3.69,3.69,0,0,0,1.19,2.77l34.38,31.37a3.72,3.72,0,0,0,2.88.94l27.77-2.43a4.52,4.52,0,0,0,4.07-4.42v-65.79l40.23-76.58a4,4,0,0,0-.69-4.78Z" style="fill: rgb(73, 95, 158); stroke: rgb(7, 8, 3); stroke-width: 2;" transform="matrix(0.9999999999999999, 0, 0, 1, -1739.7785557058871, -1031.5616505017827)"/><path class="cls-2" d="M1083,1435.76l34.38,31.37a33.11,33.11,0,0,0,25.55,8.37l25.85-2.26c19.93-1.75,36.15-19.39,36.15-39.32V1413.8a32.85,32.85,0,0,0-10.6-24.63l-13-11.87,19.53-1.71a4.52,4.52,0,0,0,4.07-4.42v-13.89a32.85,32.85,0,0,0-10.6-24.63L1160,1301.28a33.07,33.07,0,0,0-25.55-8.36l-25.85,2.26c-19.93,1.74-36.15,19.38-36.15,39.32v20.11a32.86,32.86,0,0,0,10.59,24.63h0c.11.09,6,5.5,13,11.86l-19.53,1.71a4.53,4.53,0,0,0-4.07,4.43v13.88A32.85,32.85,0,0,0,1083,1435.76Z" style="fill: rgb(73, 95, 158); stroke: rgb(7, 8, 3); stroke-width: 2;" transform="matrix(0.9999999999999999, 0, 0, 1, -509.05419982958773, -1124.69384765625)"/><path class="cls-3" d="M1108.56,1440.06l25.85-2.27c17.69-1.54,32.08-17.2,32.08-34.89v-20.12c0-17.69-14.39-30.82-32.08-29.27l-25.85,2.26a3.9,3.9,0,0,1-4.31-3.94v-20.12a4.8,4.8,0,0,1,4.31-4.69l25.85-2.26a3.88,3.88,0,0,1,4.31,3.93v13.89l27.77-2.43v-13.89c0-17.69-14.39-30.82-32.08-29.27l-25.85,2.26c-17.69,1.55-32.08,17.2-32.08,34.89v20.12c0,17.69,14.39,30.82,32.08,29.28l25.85-2.26a3.88,3.88,0,0,1,4.31,3.93v20.12a4.8,4.8,0,0,1-4.31,4.69l-25.85,2.27a3.9,3.9,0,0,1-4.31-3.94v-13.89l-27.77,2.43v13.89C1076.48,1428.47,1090.87,1441.6,1108.56,1440.06Z" style="fill: rgb(255, 255, 255);" transform="matrix(1, 0, 0, 1, -503.64736027770306, -1123.6681193676668)"/><path class="cls-2" d="M1108.56,1315.68l25.85-2.26a14.12,14.12,0,0,1,15.65,14.28,2.29,2.29,0,0,0,2.55,2.32,2.83,2.83,0,0,0,2.54-2.76,18.72,18.72,0,0,0-20.74-18.93l-25.85,2.26a23.12,23.12,0,0,0-20.74,22.56v20.12a18.73,18.73,0,0,0,20.74,18.93l25.85-2.27a14.14,14.14,0,0,1,15.65,14.29v20.12a17.44,17.44,0,0,1-15.65,17l-25.85,2.27a14.14,14.14,0,0,1-15.65-14.29,2.29,2.29,0,0,0-2.55-2.32,2.83,2.83,0,0,0-2.54,2.76,18.73,18.73,0,0,0,20.74,18.94l25.85-2.27a23.12,23.12,0,0,0,20.74-22.56v-20.11a18.72,18.72,0,0,0-20.74-18.93l-25.85,2.26a14.14,14.14,0,0,1-15.65-14.29V1332.7A17.44,17.44,0,0,1,1108.56,1315.68Z" style="fill: rgb(73, 95, 158); stroke: rgb(7, 8, 3); stroke-width: 2;" transform="matrix(0.9999999999999999, 0, 0, 1, -501.8963828533522, -1122.9427877946566)"/><path d="M 2217.18994140625 1244.9200439453125 L 2194.27001953125 1205.300048828125 L 2162.570068359375 1208.0799560546875 L 2203.31005859375 1278.489990234375 L 2203.31005859375 1345.3199462890625 L 2231.080078125 1342.8900146484375 L 2231.080078125 1276.06005859375 L 2271.81005859375 1198.52001953125 L 2240.110107421875 1201.2900390625 L 2217.18994140625 1244.9200439453125 Z" class="cls-3" style="fill: rgb(255, 255, 255);" transform="matrix(0.9999999999999999, 0, 0, 1, -1734.5257169602837, -1030.2093943511265)"/><path class="cls-2" d="M2249.54,1212.12a2.7,2.7,0,0,0-3.45,1.31l-28.9,55-28.89-50a2.43,2.43,0,0,0-3.46-.7,2.7,2.7,0,0,0-1,3.55l30.81,53.25v55.86a2.3,2.3,0,0,0,2.54,2.33,2.85,2.85,0,0,0,2.55-2.77v-55.87l30.8-58.64A2.4,2.4,0,0,0,2249.54,1212.12Z" style="fill: rgb(73, 95, 158); stroke: rgb(7, 8, 3); stroke-width: 2;" transform="matrix(0.9999999999999999, 0, 0, 1, -1733.8493253587212, -1029.5333079253453)"/><path d="M 737.3314819335938 463.22271728515625 L 754.2866821289062 451.91925048828125 L 720.3763427734375 547.9986572265625 L 663.8590698242188 468.87445068359375 C 663.8590698242188 468.87445068359375 737.3314819335938 463.22271728515625 937.9678344726562 700.5952758789062 C 1138.604248046875 937.9678344726562 737.3314819335938 841.888427734375 737.3314819335938 841.888427734375 L 737.3314819335938 463.22271728515625 Z" style="fill: rgb(255, 243, 237); fill-opacity: 1; stroke: rgb(0, 0, 0); stroke-opacity: 1; stroke-width: 0; paint-order: fill;" transform="matrix(1, 0, 0, 1, 191.3941914252331, 20.16715773380065)"/><path d="M 926.6643676757812 539.5210571289062" style="fill: rgb(255, 243, 237); fill-opacity: 1; stroke: rgb(0, 0, 0); stroke-opacity: 1; stroke-width: 0; paint-order: fill;" transform="matrix(1, 0, 0, 1, -14.129320031569591, 28.25863384460081)"/><path d="M 321.9295349121094 474.52618408203125 L 728.8539428710938 468.87445068359375" style="fill: rgb(255, 243, 237); fill-opacity: 1; stroke: rgb(0, 0, 0); stroke-opacity: 1; stroke-width: 0; paint-order: fill;" transform="matrix(1, 0, 0, 1, 79.12418186052025, -124.33800006653166)"/><path d="M 423.66064453125 485.8296813964844" style="fill: rgb(196, 147, 65); fill-opacity: 1; stroke: rgb(0, 0, 0); stroke-opacity: 1; stroke-width: 0; paint-order: fill;" transform="matrix(1, 0, 0, 1, 243.02427285731198, -127.16386370440716)"/><path style="fill: rgb(196, 147, 65); fill-opacity: 1; stroke: rgb(0, 0, 0); stroke-opacity: 1; stroke-width: 0; paint-order: fill;"/><g transform="matrix(0.45529961585998535, 0, 0, 0.4552996158599853, 232.37214660644543, -34.296694167231806)"><metadata>
Created by potrace 1.15, written by Peter Selinger 2001-2017
</metadata><g transform="translate(0.000000,1280.000000) scale(0.100000,-0.100000)" fill="#ff9800" stroke="none">
<path d="M 5265 11919 C 4594 11907 4251 11886 4203 11854 C 4174 11836 4229 11655 4198 11631 C 4173 11610 4179 11565 4209 11555 C 4226 11550 4228 11533 4234 11332 C 4238 11213 4243 11100 4246 11082 C 4249 11059 4248 11050 4241 11055 C 4235 11058 4230 11068 4230 11077 C 4230 11114 4149 11258 4095 11317 C 3881 11553 3425 11640 3119 11503 C 2770 11346 2513 10945 2471 10491 C 2436 10123 2534 9662 2718 9320 C 2910 8963 2924.281414439831 8928.279585924456 3214.256103515625 8599.0615234375 C 3314.9656109285797 8484.72250619532 3532.246661928495 8278.233737876264 3709.922607421875 8168.205078125 C 3962.1287628332375 8012.02225316023 4229.687010026198 7849.664309563598 4188.462890625 7924.20068359375 C 4038.511974390012 8195.322568337622 4099.021484375 8229.033935546875 4099.021484375 8229.033935546875 C 4097.69615369042 8230.479718697059 4798.375 8309.44140625 4922.30078125 8324.740234375 C 4962.643254487905 8329.7205746882 5620.9089833722655 7680.543469536356 5497.96826171875 7811.757080078125 L 5832.74560546875 8425.349609375 C 5922.4169921875 8423.02734375 5875.88232421875 8435.9130859375 6604.56982421875 8489.920654296875 C 6657.713891845467 8493.859754037288 7325.106211726054 7705.748591037759 7357.5146484375 7827.435791015625 C 7445.567751644702 8158.057111164621 8023.0078125 8337.0791015625 8158.85986328125 8326.6513671875 C 8285.3681640625 8347.51953125 8250.458984375 8328.578125 8579.86962890625 8359.1025390625 C 8579.86962890625 8359.1025390625 8904.3671875 8428.431640625 9154.86083984375 8224.5107421875 C 9222.336789393421 8169.580688135098 9110 8147 9320 8315 C 9584 8526 9907 8869 10091 9135 C 10337 9489 10486 10035 10450 10448 C 10400 11010 10049 11463 9610 11533 C 9524 11547 9486 11548 9400 11540 C 9074 11509 8847 11376 8735 11149 C 8709 11095 8691 11068 8694 11085 C 8697 11102 8702 11208 8706 11322 C 8712 11526 8713 11530 8736 11545 C 8766 11564 8768 11605 8740 11622 C 8712 11640 8711 11744 8739 11759 C 8793 11788 8765 11844 8688 11859 C 8423 11912 6613 11943 5265 11919 Z M 3592 11215 C 3860 11160 4100 10898 4160 10596 C 4181 10491 4196 10310 4183 10310 C 4179 10311 4166 10325 4155 10342 C 4096 10437 3923 10483 3823 10432 C 3671 10354 3636 10131 3755 9993 C 3845 9888 4027 9872 4146 9958 C 4202 9999 4247 10089 4269 10203 L 4287 10295 L 4294 10200 C 4307 10024 4387.12646484375 9312.802734375 4501.8515625 8564.474609375 C 4515.75604373029 8473.77854913422 3956.7647523270575 8383.214397599097 3840.47509765625 8476.7109375 C 3525.106201171875 8730.2666015625 3624 8628 3426 8865 C 3253 9071 3152 9226 3040 9455 C 2880 9781 2821 10010 2833 10265 C 2844 10528 2963 10828 3139 11037 C 3282 11206 3403 11254 3592 11215 Z M 9565 11182 C 9746 11113 9960 10790 10036 10471 C 10114 10145 10090.037953185223 9811.000457758752 9840 9403 C 9684.1884765625 9148.75390625 9683.970703125 9130.876953125 9539.76171875 8969.75 C 9434.050743856142 8851.637474831467 9258.823615674186 8745.346539484684 9144.0302734375 8693.7060546875 C 8863.08074260112 8567.318869178256 8689.493748761797 8563.05880364962 8438.115234375 8611.27685546875 C 8403.229157840686 8617.969086617304 8583 9584 8627 10053 L 8644 10242 L 8667 10149 C 8710 9974 8801 9892 8952 9890 C 9094 9889 9192 9963 9227 10097 C 9278 10290 9150 10458 8968 10437 C 8897 10428 8818 10387 8774 10337 L 8738 10295 L 8745 10385 C 8766 10681 8849 10868 9035 11038 C 9131 11126 9251 11182 9390 11204 C 9430 11210 9521 11199 9565 11182 Z M 3979 10344 C 4028 10334 4060 10298 4060 10251 C 4060 10208 4070 10194 4125 10160 C 4144 10148 4160 10136 4160 10133 C 4160 10113 4109 10064 4071 10047 C 3975 10005 3872 10026 3823 10100 C 3784 10157 3776 10204 3798 10253 C 3820 10302 3836 10317 3887 10336 C 3932 10351 3938 10352 3979 10344 Z M 9060 10310 C 9149 10265 9160 10154 9083 10070 C 9012 9991 8887 9991 8808 10070 C 8787 10091 8770 10112 8770 10116 C 8770 10121 8790 10137 8814 10151 C 8854 10175 8858 10183 8865 10226 C 8868 10253 8877 10283 8884 10292 C 8914 10333 8999 10341 9060 10310 Z" style="fill-opacity: 1; stroke: rgb(17, 17, 17); stroke-opacity: 1; stroke-width: 40; fill: rgb(228, 137, 0);"/>
</g></g><path d="M 671.0317993164062 121.23117065429688 L 672.1882934570312 121.23117065429688" style="fill: rgb(196, 147, 65); fill-opacity: 1; stroke: rgb(0, 0, 0); stroke-opacity: 1; stroke-width: 0; paint-order: fill;"/><path style="fill: rgb(196, 147, 65); fill-opacity: 1; stroke: rgb(0, 0, 0); stroke-opacity: 1; stroke-width: 0; paint-order: fill;"/><path d="M 539.5646362304688 280.88909912109375 L 539.5646362304688 281.38909912109375" style="fill: rgb(196, 147, 65); fill-opacity: 1; stroke: rgb(0, 0, 0); stroke-opacity: 1; stroke-width: 0; paint-order: fill;"/><g transform="matrix(0.4552996158599854, 0, 0, 0.4552996158599854, 233.43046213664036, -35.72389679749709)"><metadata>
Created by potrace 1.15, written by Peter Selinger 2001-2017
</metadata><g transform="translate(0.000000,1280.000000) scale(0.100000,-0.100000)" fill="#ff9800" stroke="none">
<path d="M 7261.8623046875 7393.5576171875 C 7275.8623046875 7429.5576171875 6898.767866898469 6675.808140493187 6878.923828125 6647.69775390625 C 6856.333894406759 6615.697751391745 6677.364120388471 6244.817950266598 6662.1455078125 6215.6376953125 C 6554.125 6008.5185546875 6512.863619239362 5992.042797571721 6506.4169921875 5922.3046875 C 6490.147435576692 5746.3046875 6510.9345929941765 5463.431397512841 6508.70166015625 5435.04541015625 C 6500.986248757263 5336.965043456477 6491.655723858188 4310.419246380074 6502.74267578125 4409.76953125 C 6508.546319637305 4461.776120334279 6423.263671875 4400.228515625 6233.20849609375 4377.92919921875 C 6170.079842965387 4370.5222669706645 6144.103515625 4374.298828125 6069.9091796875 4362.75830078125 L 5773.07666015625 4346.3095703125 L 5686.0771484375 4447.78759765625 C 5670.71533203125 4458.71484375 5589 4417 5513 4252 C 5493 4209 5476 4173 5475 4172 C 5473 4170 5429 4160 5377 4150 C 5203 4116 5131 4089 5070 4034 C 5021 3989 4987 3926 4964 3836 C 4952 3787 4943 3770 4931 3770 C 4899 3770 4702 3711 4647 3685 C 4454 3593 4396 3411 4355 2765 C 4333 2407 4316 2288 4279 2224 C 4263 2196 4244 2168 4237 2163 C 4231 2158 4176 2136 4115 2115 C 3831 2017 3705 1907 3633 1696 C 3595 1585 3595 1493 3632 1429 C 3795 1152 4805 950 6172 921 C 7347 896 8398 1005 8940 1207 C 9226 1314 9314 1429 9261 1632 C 9198 1874 9058 2003 8742 2110 L 8640 2145 L 8606 2210 C 8565 2289 8557 2350 8535 2725 C 8517 3027 8497 3207 8470 3330 C 8411 3594 8340 3664 8053 3739 L 7947 3766 L 7926 3841 C 7867 4040 7803 4085 7482 4152 L 7419 4165 L 7390 4232 C 7355 4315 7316 4370 7259 4415 C 7190 4468 7111 4493 6916 4525 L 6878 4531 L 6884 4623 C 6893 4744 6906 4820 6932 4900 C 6952 4963 6960 4972 7164 5180 C 7446 5466 7391.357398550172 5278.200267720971 7341.2353515625 5362.4189453125 C 7308.28955078125 5417.77685546875 7293.931640625 5442.13427734375 7281.48388671875 5514.07958984375 C 7274.767477895428 5552.898973269142 7229.7501659044165 5833.0048326789965 7233.44775390625 5825.30322265625 C 7260.379620541487 5769.207774775969 7251.327117253489 5980.107983911633 7250.884765625 6075.74560546875 C 7250.4423828125 6171.38330078125 7934.62202992746 6095.146559388919 7751.20849609375 6210.42626953125 C 7579.097819723157 6318.601915088625 7425.978469547431 6480.547390305461 7402.37353515625 6511.61474609375 C 7245.133696144381 6718.563880342124 7277.340834327331 6777.255859375 7250.80126953125 7015.3203125 C 7248.289462994779 7037.851660313293 7237.8623046875 7332.5576171875 7261.8623046875 7393.5576171875 Z" style="stroke: rgb(0, 0, 0); stroke-opacity: 1; stroke-width: 40;"/>
</g></g><path style="fill: rgb(255, 152, 0); fill-opacity: 0; stroke: rgb(17, 17, 17); stroke-opacity: 1; stroke-width: 40; paint-order: stroke;"/><path style="fill: rgb(255, 152, 0); fill-opacity: 0; stroke: rgb(17, 17, 17); stroke-opacity: 1; stroke-width: 40; paint-order: stroke;"/><path style="fill: rgb(255, 152, 0); fill-opacity: 0; stroke: rgb(17, 17, 17); stroke-opacity: 1; stroke-width: 40; paint-order: stroke;"/><path style="fill: rgb(255, 152, 0); fill-opacity: 1; stroke: rgb(0, 0, 0); stroke-opacity: 1; stroke-width: 22; paint-order: fill;"/><path style="fill: rgb(255, 152, 0); fill-opacity: 1; stroke: rgb(0, 0, 0); stroke-opacity: 1; stroke-width: 22; paint-order: fill;"/><path style="fill: rgb(255, 152, 0); fill-opacity: 1; stroke: rgb(0, 0, 0); stroke-opacity: 1; stroke-width: 22; paint-order: fill;"/><path style="fill: rgb(255, 152, 0); fill-opacity: 1; stroke: rgb(0, 0, 0); stroke-opacity: 1; stroke-width: 22; paint-order: fill;"/><path style="fill: rgb(255, 152, 0); fill-opacity: 1; stroke: rgb(0, 0, 0); stroke-opacity: 1; stroke-width: 22; paint-order: fill;"/></svg>